<?xml version="1.0" encoding="utf-8"?>
<!-- Generator: Adobe Illustrator 27.5.0, SVG Export Plug-In . SVG Version: 6.00 Build 0)  -->
<svg version="1.1" id="Capa_1" xmlns="http://www.w3.org/2000/svg" xmlns:xlink="http://www.w3.org/1999/xlink" x="0px" y="0px"
	 viewBox="0 0 474 156.8" style="enable-background:new 0 0 474 156.8;" xml:space="preserve">
<style type="text/css">
	.st0{fill:#03BE9F;}
	.st1{fill:#371A45;}
</style>
<polygon class="st0" points="20.9,111.9 96.9,35.9 106,45 29.9,120.9 "/>
<polygon class="st0" points="25.4,52.9 0,78.4 18.4,96.9 27.1,88 17.9,78.4 34.8,62.2 "/>
<polygon class="st0" points="108.6,60 98.9,69.6 107.9,78.4 91.9,94.9 100.9,103.9 126.9,78.4 "/>
<rect x="157.9" y="0" class="st1" width="27.9" height="125.9"/>
<polyline class="st1" points="205.9,35 205.9,53.8 249,53.8 201.9,106.6 201.9,125.9 285.9,125.9 285.9,107 235,107 282.9,53.8 
	283,35 206.4,35 "/>
<polyline class="st1" points="298,35 298,53.8 341.1,53.8 294,106.6 294,125.9 378,125.9 378,107 327.1,107 375,53.8 375.1,35 
	298.5,35 "/>
<path class="st1" d="M381.1,35l32.6,86.2c0,0,8,18.2-23.6,15.7l-0.2,19.9h25.3c0,0,14.2-1.4,22.7-23.7L474,35h-25.1l-20.2,61.4
	L407.9,35H381.1L381.1,35z"/>
</svg>
